<svg xmlns="http://www.w3.org/2000/svg" id="Ebene_1" data-name="Ebene 1" viewBox="0 0 253.72 52.08"><defs><style>.cls-1{fill:#005baa;}.cls-2{font-size:11px;fill:#61a2d8;font-family:Frutiger-Light, Frutiger Light;font-weight:300;}.cls-3{letter-spacing:0em;}.cls-4{letter-spacing:0em;}.cls-5{letter-spacing:-0.01em;}.cls-6{letter-spacing:-0.03em;}.cls-7{letter-spacing:0em;}.cls-8{letter-spacing:0em;}</style></defs><title>dfg</title><path class="cls-1" d="M23,49.78h15c4,0,7.43-.86,9.89-3s4-5.65,4-11.07c0-5.83-1.4-9.36-3.74-11.46s-5.67-2.8-9.66-2.8H23v6.12H36.12a4.28,4.28,0,0,1,4.11,2.06c.77,1.35,1,3.28,1,5.79a12.06,12.06,0,0,1-1,5.68,4.26,4.26,0,0,1-4.11,2.08h-3v-10H23Z" transform="translate(-23 -20.62)"></path><polygon class="cls-1" points="31.1 29.16 41.27 29.16 41.27 18.88 53.94 18.88 53.94 12.51 41.27 12.51 41.27 6.94 53.94 6.94 53.94 0.81 31.1 0.81 31.1 29.16"></polygon><path class="cls-1" d="M84,24.51A13,13,0,0,0,79,35.19c0,5.09,1.83,8.84,4.79,11.34a18,18,0,0,0,11.7,3.75,38.39,38.39,0,0,0,11.32-1.5V35.7H98.2v7.61l-.19.08a7.15,7.15,0,0,1-2.4.27,5.49,5.49,0,0,1-4.79-2.37,9.74,9.74,0,0,1-1.37-5.4A7.94,7.94,0,0,1,92,29.67a9.93,9.93,0,0,1,6.64-2.12A14,14,0,0,1,105.16,29V22a34.25,34.25,0,0,0-9.63-1h0A18.62,18.62,0,0,0,84,24.51" transform="translate(-23 -20.62)"></path><path class="cls-1" d="M121.36,21.4h2.5a4.91,4.91,0,0,1,3.89,1.44,5.61,5.61,0,0,1,1.16,3.75,4.77,4.77,0,0,1-1.64,4,6.63,6.63,0,0,1-4.14,1.22h-1.77Zm1,9.54h.83c3.08.06,4.66-1.4,4.74-4.4a4.24,4.24,0,0,0-1.19-3.34,4.46,4.46,0,0,0-2.91-.91h-1.47Z" transform="translate(-23 -20.62)"></path><path class="cls-1" d="M136.26,31.59a6.08,6.08,0,0,1-2.14.42,3,3,0,0,1-2.6-1.16,4.74,4.74,0,0,1-.76-2.83,4.66,4.66,0,0,1,.87-2.89A2.7,2.7,0,0,1,133.87,24a2.56,2.56,0,0,1,2.26,1.13,4.88,4.88,0,0,1,.68,2.65v.49h-5.06a3.18,3.18,0,0,0,.63,2,2.08,2.08,0,0,0,1.81.88,3.64,3.64,0,0,0,1.13-.2,3.38,3.38,0,0,0,.94-.38Zm-.44-4.11a3.7,3.7,0,0,0-.43-1.83,1.59,1.59,0,0,0-1.46-.82,1.92,1.92,0,0,0-1.58.83,3,3,0,0,0-.6,1.82Z" transform="translate(-23 -20.62)"></path><path class="cls-1" d="M144.54,30q0,.87.06,1.8h-.88V30.47h0a2.83,2.83,0,0,1-.28.5,2.3,2.3,0,0,1-.44.51,2.14,2.14,0,0,1-.69.36,2.57,2.57,0,0,1-1,.17,2.24,2.24,0,0,1-1.93-.84,3.37,3.37,0,0,1-.58-2.1V24.21h.9v4.63a3,3,0,0,0,.42,1.71,1.45,1.45,0,0,0,1.34.66,2,2,0,0,0,1.05-.27,1.84,1.84,0,0,0,.67-.66,2.93,2.93,0,0,0,.36-.9,4.47,4.47,0,0,0,.1-1V24.21h.91Z" transform="translate(-23 -20.62)"></path><path class="cls-1" d="M150.27,25H148.6V30a1.54,1.54,0,0,0,.23.88.79.79,0,0,0,.75.38,1.8,1.8,0,0,0,.84-.19l.06.78-.45.13a2.8,2.8,0,0,1-.67.08,1.78,1.78,0,0,1-.93-.21,1.44,1.44,0,0,1-.51-.56,3.13,3.13,0,0,1-.19-.8c0-.3,0-.63,0-1V25h-1.44v-.8h1.44V22.37l.91-.33v2.17h1.67Z" transform="translate(-23 -20.62)"></path><path class="cls-1" d="M151.51,30.72a3.91,3.91,0,0,0,1.92.49,1.82,1.82,0,0,0,1.16-.38,1.18,1.18,0,0,0,.48-1,1.29,1.29,0,0,0-.54-1.07,6.46,6.46,0,0,0-1.23-.67,6.37,6.37,0,0,1-.63-.35,4.6,4.6,0,0,1-.58-.4,2,2,0,0,1-.41-.55,1.57,1.57,0,0,1-.16-.7,1.82,1.82,0,0,1,.75-1.62,3,3,0,0,1,1.65-.47,7.3,7.3,0,0,1,.83.06,5.34,5.34,0,0,1,1,.28l-.09.82a4.47,4.47,0,0,0-1.64-.35,2.08,2.08,0,0,0-1.13.26,1,1,0,0,0-.34.38,1.39,1.39,0,0,0-.12.63.7.7,0,0,0,.16.44,1.52,1.52,0,0,0,.42.36,6.36,6.36,0,0,0,.59.31l.65.33a4.21,4.21,0,0,1,1.26.84,2,2,0,0,1,.55,1.46,2,2,0,0,1-.23,1,2.11,2.11,0,0,1-.62.67,3.27,3.27,0,0,1-1.72.5,6,6,0,0,1-2.06-.36Z" transform="translate(-23 -20.62)"></path><path class="cls-1" d="M162.69,25.21a3.78,3.78,0,0,0-1.58-.38,2.53,2.53,0,0,0-2,.87,3.51,3.51,0,0,0-.74,2.32,3.42,3.42,0,0,0,.73,2.23,2.34,2.34,0,0,0,1.95,1,4.24,4.24,0,0,0,1.67-.35l.08.88a5.84,5.84,0,0,1-1.89.27,3.2,3.2,0,0,1-2.65-1.21,4.44,4.44,0,0,1-.88-2.78,4.16,4.16,0,0,1,1-2.89A3.43,3.43,0,0,1,161,24a5.14,5.14,0,0,1,1.13.11,3,3,0,0,1,.4.09l.24.1Z" transform="translate(-23 -20.62)"></path><path class="cls-1" d="M164.53,20.62h.9v4.86h0a2.77,2.77,0,0,1,.9-1.06,2.65,2.65,0,0,1,1.4-.4,2.19,2.19,0,0,1,2,.9,4.51,4.51,0,0,1,.51,2.34v4.57h-.91V27.27a7.27,7.27,0,0,0-.05-.95,2.2,2.2,0,0,0-.25-.76,1.47,1.47,0,0,0-1.45-.73,1.85,1.85,0,0,0-1.7.94,3.87,3.87,0,0,0-.49,2v4.09h-.9Z" transform="translate(-23 -20.62)"></path><path class="cls-1" d="M177.79,31.59a6.14,6.14,0,0,1-2.15.42,3,3,0,0,1-2.59-1.16,4.67,4.67,0,0,1-.76-2.83,4.6,4.6,0,0,1,.86-2.89A2.71,2.71,0,0,1,175.39,24a2.58,2.58,0,0,1,2.27,1.13,4.87,4.87,0,0,1,.67,2.65v.49h-5.05a3.18,3.18,0,0,0,.62,2,2.09,2.09,0,0,0,1.81.88,5.3,5.3,0,0,0,2.08-.58Zm-.45-4.11a3.8,3.8,0,0,0-.42-1.83,1.61,1.61,0,0,0-1.47-.82,2,2,0,0,0-1.58.83,3,3,0,0,0-.59,1.82Z" transform="translate(-23 -20.62)"></path><path class="cls-1" d="M121.32,39.33h4.8v.89h-3.81V44h3.63v.89h-3.63v4.92h-1Z" transform="translate(-23 -20.62)"></path><path class="cls-1" d="M127.41,46a4.61,4.61,0,0,1,.84-2.78,3,3,0,0,1,2.6-1.21,3.08,3.08,0,0,1,2.64,1.21,5.16,5.16,0,0,1,0,5.55,3.08,3.08,0,0,1-2.64,1.22,3,3,0,0,1-2.6-1.22A4.62,4.62,0,0,1,127.41,46Zm1,0A3.79,3.79,0,0,0,129,48.2a2.06,2.06,0,0,0,1.82.94,2.13,2.13,0,0,0,1.84-.94,3.93,3.93,0,0,0,.61-2.25,4,4,0,0,0-.61-2.27,2.16,2.16,0,0,0-1.84-.92,2.09,2.09,0,0,0-1.82.92A3.88,3.88,0,0,0,128.4,46Z" transform="translate(-23 -20.62)"></path><path class="cls-1" d="M136.29,43.84c0-.7,0-1.27,0-1.7h.9V43.6h0a3.19,3.19,0,0,1,.73-1.14,1.57,1.57,0,0,1,1.16-.5,2.9,2.9,0,0,1,.64.09v1a2.71,2.71,0,0,0-.66-.08,1.54,1.54,0,0,0-.89.27,1.9,1.9,0,0,0-.56.73,3.42,3.42,0,0,0-.29,1,5.79,5.79,0,0,0-.1,1.08v3.77h-.91Z" transform="translate(-23 -20.62)"></path><path class="cls-1" d="M140.7,48.66a4,4,0,0,0,1.92.48,1.79,1.79,0,0,0,1.16-.37,1.2,1.2,0,0,0,.48-1,1.27,1.27,0,0,0-.54-1.06A6.09,6.09,0,0,0,142.5,46a5.52,5.52,0,0,1-.64-.34,6,6,0,0,1-.58-.4,2.31,2.31,0,0,1-.41-.56,1.54,1.54,0,0,1-.16-.7,1.79,1.79,0,0,1,.75-1.61,3,3,0,0,1,1.66-.47,7.31,7.31,0,0,1,.82.06,5.14,5.14,0,0,1,1,.28l-.09.82a4.29,4.29,0,0,0-1.64-.36,2.11,2.11,0,0,0-1.12.26,1,1,0,0,0-.34.38,1.28,1.28,0,0,0-.13.63.71.71,0,0,0,.16.45,1.52,1.52,0,0,0,.42.36c.17.1.37.2.59.31s.44.21.65.33a4.21,4.21,0,0,1,1.26.84,2.23,2.23,0,0,1,.32,2.45,2,2,0,0,1-.62.68,3.23,3.23,0,0,1-1.72.49,6,6,0,0,1-2.06-.36Z" transform="translate(-23 -20.62)"></path><path class="cls-1" d="M151.89,43.15a3.87,3.87,0,0,0-1.59-.39,2.54,2.54,0,0,0-2,.88,3.5,3.5,0,0,0-.74,2.31,3.46,3.46,0,0,0,.73,2.23,2.34,2.34,0,0,0,1.95,1,4.23,4.23,0,0,0,1.67-.34l.09.88a6.23,6.23,0,0,1-1.9.26,3.17,3.17,0,0,1-2.65-1.21,4.48,4.48,0,0,1-.88-2.78,4.14,4.14,0,0,1,1-2.88A3.43,3.43,0,0,1,150.18,42a5.2,5.2,0,0,1,1.13.1l.4.09.25.11Z" transform="translate(-23 -20.62)"></path><path class="cls-1" d="M153.72,38.55h.9v4.87h0a2.63,2.63,0,0,1,.9-1.06A2.56,2.56,0,0,1,157,42a2.19,2.19,0,0,1,2,.9,4.51,4.51,0,0,1,.51,2.34v4.56h-.9V45.21a7.27,7.27,0,0,0-.06-1,2.2,2.2,0,0,0-.25-.76,1.46,1.46,0,0,0-1.45-.73,1.85,1.85,0,0,0-1.7.94,4,4,0,0,0-.49,2v4.08h-.9Z" transform="translate(-23 -20.62)"></path><path class="cls-1" d="M167.78,48c0,.57,0,1.17.06,1.79H167V48.4h0a2.52,2.52,0,0,1-.27.51,2.36,2.36,0,0,1-.45.51,2.09,2.09,0,0,1-.68.36,2.61,2.61,0,0,1-1,.16,2.26,2.26,0,0,1-1.94-.84A3.4,3.4,0,0,1,162,47V42.14h.91v4.63a3.09,3.09,0,0,0,.41,1.71,1.46,1.46,0,0,0,1.34.66,2,2,0,0,0,1.06-.27,1.74,1.74,0,0,0,.66-.66,2.54,2.54,0,0,0,.36-.9,4.33,4.33,0,0,0,.11-1V42.14h.9Z" transform="translate(-23 -20.62)"></path><path class="cls-1" d="M170.34,43.93c0-.58,0-1.18-.05-1.79h.88V43.5h0a3.64,3.64,0,0,1,.3-.54,2.19,2.19,0,0,1,.43-.49,2,2,0,0,1,.68-.38,3.08,3.08,0,0,1,1-.13,2.28,2.28,0,0,1,1.95.84,3.51,3.51,0,0,1,.56,2.09v4.87h-.9V45.12a3.33,3.33,0,0,0-.39-1.73,1.57,1.57,0,0,0-1.36-.63,1.88,1.88,0,0,0-1.72.89,2.87,2.87,0,0,0-.36.89,4.79,4.79,0,0,0-.11,1v4.22h-.91Z" transform="translate(-23 -20.62)"></path><path class="cls-1" d="M184.49,49.13a4.65,4.65,0,0,1-.76,2.73A3.18,3.18,0,0,1,181,53a6.83,6.83,0,0,1-1.34-.16l-.9-.24.08-.94a4.65,4.65,0,0,0,2.18.53,2.65,2.65,0,0,0,1.38-.32,1.79,1.79,0,0,0,.77-.84,3.59,3.59,0,0,0,.34-1.24c0-.47,0-1,0-1.51h0a2.39,2.39,0,0,1-2.25,1.49,2.66,2.66,0,0,1-2.43-1.28,3.91,3.91,0,0,1-.51-1.23,5.34,5.34,0,0,1-.17-1.3,5,5,0,0,1,.71-2.87A2.6,2.6,0,0,1,181.26,42a4.18,4.18,0,0,1,1.28.17,2.36,2.36,0,0,1,1,.87h0v-.86h.9ZM179.21,46a3.92,3.92,0,0,0,.49,2,1.77,1.77,0,0,0,1.64,1,1.87,1.87,0,0,0,1.75-1,4.23,4.23,0,0,0,.5-2,4.9,4.9,0,0,0-.46-2.3,1.84,1.84,0,0,0-1.73-.89,1.8,1.8,0,0,0-1.06.29,1.88,1.88,0,0,0-.68.74,3.51,3.51,0,0,0-.35,1A6.27,6.27,0,0,0,179.21,46Z" transform="translate(-23 -20.62)"></path><path class="cls-1" d="M186.4,48.66a4,4,0,0,0,1.92.48,1.79,1.79,0,0,0,1.16-.37,1.2,1.2,0,0,0,.48-1,1.27,1.27,0,0,0-.54-1.06,5.91,5.91,0,0,0-1.23-.68,6.31,6.31,0,0,1-.63-.34,6,6,0,0,1-.58-.4,2.07,2.07,0,0,1-.41-.56,1.54,1.54,0,0,1-.16-.7,1.79,1.79,0,0,1,.75-1.61,3,3,0,0,1,1.65-.47,7.3,7.3,0,0,1,.83.06,5.34,5.34,0,0,1,1,.28l-.09.82a4.29,4.29,0,0,0-1.64-.36,2.17,2.17,0,0,0-1.13.26,1,1,0,0,0-.33.38,1.28,1.28,0,0,0-.13.63.71.71,0,0,0,.16.45,1.52,1.52,0,0,0,.42.36c.17.1.37.2.59.31s.44.21.65.33a4.21,4.21,0,0,1,1.26.84,2.23,2.23,0,0,1,.32,2.45,2.14,2.14,0,0,1-.62.68,3.26,3.26,0,0,1-1.72.49,6,6,0,0,1-2.06-.36Z" transform="translate(-23 -20.62)"></path><path class="cls-1" d="M198.62,49.13a4.65,4.65,0,0,1-.76,2.73A3.18,3.18,0,0,1,195.17,53a6.83,6.83,0,0,1-1.34-.16l-.9-.24.08-.94a4.61,4.61,0,0,0,2.17.53,2.69,2.69,0,0,0,1.39-.32,1.79,1.79,0,0,0,.77-.84,3.59,3.59,0,0,0,.34-1.24c0-.47,0-1,0-1.51h0a2.38,2.38,0,0,1-2.24,1.49A2.64,2.64,0,0,1,193,48.48a3.91,3.91,0,0,1-.51-1.23,5.34,5.34,0,0,1-.17-1.3,5,5,0,0,1,.71-2.87A2.6,2.6,0,0,1,195.39,42a4.18,4.18,0,0,1,1.28.17,2.36,2.36,0,0,1,1,.87h0v-.86h.9ZM193.34,46a3.92,3.92,0,0,0,.49,2,1.77,1.77,0,0,0,1.64,1,1.88,1.88,0,0,0,1.75-1,4.23,4.23,0,0,0,.5-2,5,5,0,0,0-.46-2.3,1.84,1.84,0,0,0-1.73-.89,1.8,1.8,0,0,0-1.06.29,1.88,1.88,0,0,0-.68.74,3.51,3.51,0,0,0-.35,1A6.27,6.27,0,0,0,193.34,46Z" transform="translate(-23 -20.62)"></path><path class="cls-1" d="M206,49.52a6,6,0,0,1-2.14.42,3,3,0,0,1-2.59-1.15,4.72,4.72,0,0,1-.77-2.84,4.61,4.61,0,0,1,.87-2.88A2.7,2.7,0,0,1,203.65,42a2.56,2.56,0,0,1,2.26,1.12,4.83,4.83,0,0,1,.68,2.66v.48h-5.06a3.23,3.23,0,0,0,.63,2.05,2.11,2.11,0,0,0,1.81.87,3.33,3.33,0,0,0,1.13-.2,3.4,3.4,0,0,0,.94-.37Zm-.44-4.1a3.87,3.87,0,0,0-.42-1.84,1.61,1.61,0,0,0-1.47-.82,1.92,1.92,0,0,0-1.58.84,3,3,0,0,0-.6,1.82Z" transform="translate(-23 -20.62)"></path><path class="cls-1" d="M217.63,49.76V44.69a4.75,4.75,0,0,0-.06-.78,1.68,1.68,0,0,0-.29-.6,1.26,1.26,0,0,0-.49-.42,2.25,2.25,0,0,0-.79-.13,1.9,1.9,0,0,0-1.42.66,3.12,3.12,0,0,0-.65,2.12v4.22H213V44.69a3.84,3.84,0,0,0-.07-.78,1.66,1.66,0,0,0-.28-.6,1.29,1.29,0,0,0-.5-.42,2.21,2.21,0,0,0-.79-.13,1.88,1.88,0,0,0-1.41.66,3.07,3.07,0,0,0-.65,2.12v4.22h-.91V43.93c0-.58,0-1.18,0-1.79h.91v1.29h0a3.78,3.78,0,0,1,.29-.47,1.61,1.61,0,0,1,.41-.47,2.52,2.52,0,0,1,.67-.39,2.89,2.89,0,0,1,1-.15,3.09,3.09,0,0,1,.58.06,1.89,1.89,0,0,1,.6.24,1.68,1.68,0,0,1,.52.48,2.25,2.25,0,0,1,.31.83h0a2.67,2.67,0,0,1,.91-1.15,2.56,2.56,0,0,1,1.52-.46,2.33,2.33,0,0,1,1.78.71,2.69,2.69,0,0,1,.61,1.84v5.25Z" transform="translate(-23 -20.62)"></path><path class="cls-1" d="M226,49.52a6.14,6.14,0,0,1-2.15.42,3,3,0,0,1-2.59-1.15,4.72,4.72,0,0,1-.76-2.84,4.61,4.61,0,0,1,.86-2.88A2.72,2.72,0,0,1,223.58,42a2.57,2.57,0,0,1,2.26,1.12,4.91,4.91,0,0,1,.67,2.66v.48h-5a3.29,3.29,0,0,0,.62,2.05,2.12,2.12,0,0,0,1.81.87,3.33,3.33,0,0,0,1.13-.2,3.48,3.48,0,0,0,.95-.37Zm-.45-4.1a3.87,3.87,0,0,0-.42-1.84,1.61,1.61,0,0,0-1.47-.82,1.93,1.93,0,0,0-1.58.84,3,3,0,0,0-.59,1.82Z" transform="translate(-23 -20.62)"></path><path class="cls-1" d="M229.4,40.11h-.91V38.85h.91Zm-.91,2h.91v7.62h-.91Z" transform="translate(-23 -20.62)"></path><path class="cls-1" d="M231.81,43.93c0-.58,0-1.18-.05-1.79h.88V43.5h0A3.64,3.64,0,0,1,233,43a2.19,2.19,0,0,1,.43-.49,1.94,1.94,0,0,1,.68-.38,3.05,3.05,0,0,1,1-.13,2.29,2.29,0,0,1,2,.84,3.51,3.51,0,0,1,.56,2.09v4.87h-.9V45.12a3.33,3.33,0,0,0-.39-1.73,1.57,1.57,0,0,0-1.36-.63,1.88,1.88,0,0,0-1.72.89,2.87,2.87,0,0,0-.36.89,4.79,4.79,0,0,0-.11,1v4.22h-.91Z" transform="translate(-23 -20.62)"></path><path class="cls-1" d="M239.56,48.66a4,4,0,0,0,1.92.48,1.81,1.81,0,0,0,1.16-.37,1.2,1.2,0,0,0,.48-1,1.27,1.27,0,0,0-.54-1.06,6.47,6.47,0,0,0-1.23-.68,6.31,6.31,0,0,1-.63-.34,5,5,0,0,1-.58-.4,2.07,2.07,0,0,1-.41-.56,1.42,1.42,0,0,1-.16-.7,1.79,1.79,0,0,1,.75-1.61A3,3,0,0,1,242,42a7.46,7.46,0,0,1,.83.06,5.25,5.25,0,0,1,1,.28l-.08.82a4.29,4.29,0,0,0-1.64-.36,2.17,2.17,0,0,0-1.13.26,1,1,0,0,0-.34.38,1.41,1.41,0,0,0-.12.63.71.71,0,0,0,.16.45,1.52,1.52,0,0,0,.42.36c.17.1.37.2.59.31s.44.21.65.33a4.21,4.21,0,0,1,1.26.84,2.23,2.23,0,0,1,.32,2.45,2.14,2.14,0,0,1-.62.68,3.26,3.26,0,0,1-1.72.49,6,6,0,0,1-2.06-.36Z" transform="translate(-23 -20.62)"></path><path class="cls-1" d="M250.74,43.15a3.79,3.79,0,0,0-1.58-.39,2.51,2.51,0,0,0-2,.88,3.5,3.5,0,0,0-.74,2.31,3.4,3.4,0,0,0,.73,2.23,2.34,2.34,0,0,0,1.95,1,4.23,4.23,0,0,0,1.67-.34l.08.88a6.17,6.17,0,0,1-1.89.26,3.16,3.16,0,0,1-2.65-1.21,4.42,4.42,0,0,1-.88-2.78,4.09,4.09,0,0,1,1-2.88A3.42,3.42,0,0,1,249,42a5.08,5.08,0,0,1,1.13.1l.41.09.24.11Z" transform="translate(-23 -20.62)"></path><path class="cls-1" d="M252.58,38.55h.9v4.87h0a2.63,2.63,0,0,1,.9-1.06,2.55,2.55,0,0,1,1.39-.4,2.2,2.2,0,0,1,2,.9,4.61,4.61,0,0,1,.51,2.34v4.56h-.91V45.21a9.61,9.61,0,0,0-.05-1,2.43,2.43,0,0,0-.25-.76,1.47,1.47,0,0,0-1.45-.73,1.84,1.84,0,0,0-1.7.94,3.88,3.88,0,0,0-.49,2v4.08h-.9Z" transform="translate(-23 -20.62)"></path><path class="cls-1" d="M265.12,48.54h0a2.27,2.27,0,0,1-1,1,2.9,2.9,0,0,1-1.37.37,2.87,2.87,0,0,1-1.24-.25,1.9,1.9,0,0,1-.76-.57,2.51,2.51,0,0,1,0-2.83,2.5,2.5,0,0,1,1.12-.8,6.68,6.68,0,0,1,1.48-.33c.52,0,1,0,1.5,0H265v-.39c0-1.31-.53-2-1.68-2a3.94,3.94,0,0,0-2.18.63v-.91a5.28,5.28,0,0,1,2.17-.52c1.75,0,2.61.93,2.59,2.84v3.36a11.49,11.49,0,0,0,.08,1.6h-.9ZM265,45.92h-.26c-.4,0-.79,0-1.19,0a4.26,4.26,0,0,0-1.13.26,1.76,1.76,0,0,0-.82.55,1.48,1.48,0,0,0-.33,1,1.17,1.17,0,0,0,.47,1,1.71,1.71,0,0,0,1.07.33,2.14,2.14,0,0,0,1.26-.33,1.89,1.89,0,0,0,.65-.74,2.54,2.54,0,0,0,.25-.92c0-.31,0-.57,0-.77Z" transform="translate(-23 -20.62)"></path><path class="cls-1" d="M269,42.94h-1.49v-.8H269v-.55a11.76,11.76,0,0,1,.06-1.2,2.83,2.83,0,0,1,.22-1,1.5,1.5,0,0,1,.59-.74,1.88,1.88,0,0,1,1.08-.26h.48a.93.93,0,0,1,.37.13l0,.83a1.43,1.43,0,0,0-.73-.17,1,1,0,0,0-.68.21A1.13,1.13,0,0,0,270,40a2.92,2.92,0,0,0-.09.73c0,.27,0,.53,0,.78v.66h1.66v.8h-1.66v6.82H269Z" transform="translate(-23 -20.62)"></path><path class="cls-1" d="M276.51,42.94h-1.68v4.94a1.55,1.55,0,0,0,.24.89.78.78,0,0,0,.75.37,1.8,1.8,0,0,0,.84-.18l.06.77a3.25,3.25,0,0,1-.45.13,2.41,2.41,0,0,1-.67.08,1.82,1.82,0,0,1-.94-.21,1.39,1.39,0,0,1-.5-.55,2.83,2.83,0,0,1-.19-.81c0-.3,0-.62,0-1V42.94h-1.45v-.8h1.45V40.3l.9-.33v2.17h1.68Z" transform="translate(-23 -20.62)"></path><text x="-23" y="-20.62"></text><text class="cls-2" transform="translate(97.46 49.33)"><tspan class="cls-3">G</tspan><tspan x="7.16" y="0">e</tspan><tspan class="cls-4" x="12.67" y="0">r</tspan><tspan x="16.31" y="0">man </tspan><tspan class="cls-4" x="39.23" y="0">R</tspan><tspan x="45.19" y="0">esea</tspan><tspan class="cls-5" x="65.87" y="0">r</tspan><tspan x="69.35" y="0">ch </tspan><tspan class="cls-6" x="82.72" y="0">F</tspan><tspan x="87.74" y="0">ound</tspan><tspan class="cls-7" x="112.14" y="0">a</tspan><tspan class="cls-8" x="117.4" y="0">tion</tspan></text></svg>