<svg xmlns="http://www.w3.org/2000/svg" id="Layer_1" data-name="Layer 1" viewBox="0 0 286.56 78.14"><defs><style>.cls-1{fill:#c7c8ca;}.cls-2{fill:#004fa3;}.cls-3,.cls-4{fill:#231f20;}.cls-3{fill-rule:evenodd;}</style></defs><path class="cls-1" d="M38.42,47.55H13.33a2.81,2.81,0,0,0-2.8,3.06v7.68h26l-1.16,6.55H10.53V82.6H3.71V50.23c0-5,2.34-9.23,8.84-9.23h27l-1.15,6.55Z" transform="translate(-3.71 -41)"></path><path class="cls-2" d="M45.37,41V71.49c0,7.15,1.82,11.11,10.21,11.11h45.24V41H93.93V76.36H80.05c-2.21,0-3-.78-3-2.86V41H70.11V76.36H56c-2.73,0-3.7-1-3.7-3.7V41Z" transform="translate(-3.71 -41)"></path><path class="cls-2" d="M142.42,47.55H117.33a2.8,2.8,0,0,0-2.79,3.06v7.68h26l-1.16,6.55H114.54V82.6h-6.83V50.23c0-5,2.34-9.23,8.84-9.23h27l-1.16,6.55Z" transform="translate(-3.71 -41)"></path><path class="cls-3" d="M45.89,118.88h.31c.66,0,1.43,0,2.31,0,1.06,0,1.92,0,2.62,0a7,7,0,0,0,4.08-.9c1.56-1.12,2.48-3.48,2.48-6.38,0-3.15-.88-5.53-2.46-6.61a5.87,5.87,0,0,0-3.57-.92l-3.43.06H45.89v.18c0,.4,0,1.56.07,3.5l0,3.68,0,3.65c0,1.94,0,3.1-.07,3.5v.18Zm2.45-1.57v-.17l-.05-2.56,0-3v-.47c0-.59,0-1.62,0-3.06,0-.92,0-1.6.05-2v-.24a21.15,21.15,0,0,1,2.6-.16c2.94,0,4.31,1.87,4.31,6,0,2.58-.55,4.38-1.61,5.17a4.84,4.84,0,0,1-2.75.66l-1.21,0a9.92,9.92,0,0,1-1.17-.06.6.6,0,0,1-.17,0Z" transform="translate(-3.71 -41)"></path><path class="cls-3" d="M69.49,118.57v-1.76a8.48,8.48,0,0,1-3.56.81c-2.43,0-3.55-1.36-3.55-4.27V113l.24,0c.42,0,1.5,0,3.24,0,2.07,0,3.3,0,3.72,0l.24,0c0-.4,0-.58,0-1a4.36,4.36,0,0,0-.75-3c-.7-.89-2-1.33-3.69-1.33-3.57,0-5.22,1.85-5.22,5.79s1.72,5.64,5.28,5.64a15.26,15.26,0,0,0,4-.55Zm-7-6.87c.13-1.83,1-2.62,2.75-2.62s2.51.71,2.51,2.47v.15h-.2c-.37,0-1,0-2,0h-.38c-1.38,0-2.2,0-2.44,0Z" transform="translate(-3.71 -41)"></path><path class="cls-3" d="M72.79,118.88H75v-.22c-.06-.71-.11-2-.13-3.9v-.48a8,8,0,0,1,.42-3.37,2.13,2.13,0,0,1,2.07-1.56,4.49,4.49,0,0,1,1.34.22V108a3,3,0,0,0-1.27-.29,2.51,2.51,0,0,0-2.12,1.08,5,5,0,0,0-.59,1.08v-.31l0-1.38v-.22h-2a1.08,1.08,0,0,1,0,.22c0,.37,0,1.23.07,2.57l0,2.69,0,2.77c0,1.23,0,2.07-.07,2.47a1,1,0,0,1,0,.22Z" transform="translate(-3.71 -41)"></path><path class="cls-4" d="M89.54,118.88H92l0-.22.82-3.15.72-2.82c.68-2.51,1.24-4.58,1.5-5.41l.11-.42.13.48.64,2.31c.73,2.71,1,3.79,1.56,6.06.31,1.21.53,2.18.71,3l.06.22h2.49l0-.22c.22-.71.55-1.94,1-3.66.39-1.45.7-2.6.94-3.45l1.1-3.77,1-3.37.09-.22H102.9l0,.22-.66,2.8-.9,3.63-.69,2.78L100,116l-.11.44c-.06-.2-.11-.33-.13-.42s-.24-.92-.57-2.24l-.73-2.82-.83-3.59-.71-2.91a1.26,1.26,0,0,1,0-.22H94.19l0,.22c-.11.55-.33,1.55-.68,3-.46,1.92-.77,3.13-.9,3.61l-.71,2.71L91.24,116l-.11.41L91,116c0-.13-.22-.88-.6-2.24s-.57-2.22-.68-2.64l-.84-3.52-.75-3.2,0-.22H85.4l.07.22c.77,2.45,1.3,4.16,2.11,7.14l1,3.34,1,3.77,0,.22Z" transform="translate(-3.71 -41)"></path><path class="cls-3" d="M106.48,118.88h2.27a1,1,0,0,1,0-.22c0-.36,0-1.17-.07-2.47l0-2.77,0-2.69c0-1.38,0-2.24.07-2.57a1.08,1.08,0,0,1,0-.22h-2.27a.43.43,0,0,0,0,.22c0,.37,0,1.23,0,2.57l0,2.69,0,2.77c0,1.23,0,2.07,0,2.47a.45.45,0,0,0,0,.22Zm-.11-14.2c0,.88.42,1.36,1.19,1.36s1.26-.44,1.26-1.36-.4-1.37-1.21-1.37-1.24.47-1.24,1.37Z" transform="translate(-3.71 -41)"></path><path class="cls-4" d="M111.51,118.55a15.88,15.88,0,0,0,4.09.57c2.75,0,4.49-1.34,4.49-3.46a2.78,2.78,0,0,0-1.12-2.35,7.19,7.19,0,0,0-2.55-1,8.67,8.67,0,0,1-1.92-.61,1.25,1.25,0,0,1-.72-1.13c0-.9.79-1.43,2.13-1.43a9.58,9.58,0,0,1,3.32.75v-1.94a7,7,0,0,1-.83,0,27.25,27.25,0,0,0-2.73-.18c-2.47,0-4,1.24-4,3.15a2.62,2.62,0,0,0,1,2.16,5.91,5.91,0,0,0,2.11.9c.68.2,1.14.33,1.34.4a3.67,3.67,0,0,1,.88.35,1.46,1.46,0,0,1,.49.35,1.48,1.48,0,0,1,.37,1c0,1-.92,1.68-2.44,1.68a9.38,9.38,0,0,1-3.92-1v1.87Z" transform="translate(-3.71 -41)"></path><path class="cls-4" d="M122.21,118.55a15.83,15.83,0,0,0,4.09.57c2.75,0,4.49-1.34,4.49-3.46a2.78,2.78,0,0,0-1.12-2.35,7.19,7.19,0,0,0-2.55-1,8.67,8.67,0,0,1-1.92-.61,1.26,1.26,0,0,1-.73-1.13c0-.9.8-1.43,2.14-1.43a9.62,9.62,0,0,1,3.32.75v-1.94a7,7,0,0,1-.83,0,27.25,27.25,0,0,0-2.73-.18c-2.47,0-4,1.24-4,3.15a2.64,2.64,0,0,0,1,2.16,6.07,6.07,0,0,0,2.12.9c.68.2,1.14.33,1.34.4a3.67,3.67,0,0,1,.88.35,1.33,1.33,0,0,1,.48.35,1.44,1.44,0,0,1,.38,1c0,1-.93,1.68-2.44,1.68a9.35,9.35,0,0,1-3.92-1v1.87Z" transform="translate(-3.71 -41)"></path><path class="cls-3" d="M142.31,118.57v-1.76a8.52,8.52,0,0,1-3.57.81c-2.42,0-3.54-1.36-3.54-4.27V113l.24,0c.42,0,1.49,0,3.23,0,2.07,0,3.31,0,3.72,0l.25,0c0-.4,0-.58,0-1a4.41,4.41,0,0,0-.75-3,4.5,4.5,0,0,0-3.7-1.33c-3.56,0-5.22,1.85-5.22,5.79s1.72,5.64,5.29,5.64a15.37,15.37,0,0,0,4-.55Zm-7-6.87c.14-1.83,1-2.62,2.76-2.62s2.5.71,2.5,2.47v.15h-.19c-.38,0-1.06,0-2,0H138c-1.39,0-2.2,0-2.45,0Z" transform="translate(-3.71 -41)"></path><path class="cls-3" d="M145.6,118.88h2.27l0-.22,0-2-.05-2.4,0-2.07c0-1.3.16-1.87.56-2.31a3.5,3.5,0,0,1,4-.22c.51.44.69,1,.69,2.35l0,2,0,3.22v.24a8.68,8.68,0,0,0,.07,1.41h2.33a5.71,5.71,0,0,1-.16-1.61c0-1,0-2.58,0-3.76V112.4c0-.22,0-.41,0-.63a5,5,0,0,0-.37-2.56,2.27,2.27,0,0,0-.86-.88,5,5,0,0,0-2.71-.64,4.49,4.49,0,0,0-3.61,1.35v-.25l0-.63,0-.22H145.6a.73.73,0,0,1,0,.22c0,.37,0,1.23.06,2.57l0,2.69,0,2.77c0,1.23,0,2.07-.06,2.47a.7.7,0,0,1,0,.22Z" transform="translate(-3.71 -41)"></path><path class="cls-4" d="M158.08,118.55a16,16,0,0,0,4.1.57c2.75,0,4.49-1.34,4.49-3.46a2.81,2.81,0,0,0-1.12-2.35,7.18,7.18,0,0,0-2.56-1,8.49,8.49,0,0,1-1.91-.61,1.26,1.26,0,0,1-.73-1.13c0-.9.79-1.43,2.14-1.43a9.62,9.62,0,0,1,3.32.75v-1.94a7.14,7.14,0,0,1-.84,0,27.07,27.07,0,0,0-2.73-.18c-2.46,0-4,1.24-4,3.15a2.64,2.64,0,0,0,1,2.16,6,6,0,0,0,2.11.9c.69.2,1.15.33,1.35.4a3.85,3.85,0,0,1,.88.35,1.33,1.33,0,0,1,.48.35,1.49,1.49,0,0,1,.38,1c0,1-.93,1.68-2.45,1.68a9.38,9.38,0,0,1-3.92-1v1.87Z" transform="translate(-3.71 -41)"></path><path class="cls-4" d="M177.19,107.87l-.24,0c-.57-.07-1.34-.11-1.7-.13s-.66,0-1,0c-2,0-3.12.38-3.94,1.26a6.49,6.49,0,0,0-1.43,4.49,6.19,6.19,0,0,0,1.3,4.29,4.29,4.29,0,0,0,3.63,1.39,10.25,10.25,0,0,0,3.41-.57v-1.68a6.68,6.68,0,0,1-3,.75c-2.07,0-3.1-1.43-3.1-4.27,0-3,.88-4.2,3.14-4.2a9.49,9.49,0,0,1,2.93.5v-1.78Z" transform="translate(-3.71 -41)"></path><path class="cls-4" d="M180.19,118.88h2.27l0-.22c0-.58-.05-1.5-.05-2.76s0-2.24,0-3.08v-.24c0-1.47.15-2.16.53-2.62a2.72,2.72,0,0,1,2.2-.81c1.89,0,2.57.75,2.57,2.79v.18l-.09,4.31v.51a12.36,12.36,0,0,0,.09,1.94H190a38.69,38.69,0,0,1-.2-4.58c0-.82,0-1.7,0-2.69v-.24c0-1.43-.18-2.11-.69-2.62a4.49,4.49,0,0,0-3.28-1.08,4.72,4.72,0,0,0-3.41,1.17c0-.18,0-.31,0-.38s0-.9.05-2.26l.06-2.75,0-.22h-2.33l0,.22.07,4.16,0,3.76,0,3.74-.07,3.55,0,.22Z" transform="translate(-3.71 -41)"></path><path class="cls-3" d="M200,117.07a9.39,9.39,0,0,0,.14,1.81h2a24,24,0,0,1-.31-4.87v-.31l0-2v-.26c0-1.72-.13-2.23-.73-2.78s-1.74-1-3.52-1c-.62,0-1.28,0-1.94.11a15.41,15.41,0,0,1-1.65.14.59.59,0,0,1-.2,0l-.11,1.81a12,12,0,0,1,3.55-.57c1.78,0,2.51.53,2.51,1.87v.81c-.73,0-1.81-.09-2.38-.09-3.15,0-4.8,1.26-4.8,3.7s1.34,3.68,3.85,3.68a3.56,3.56,0,0,0,3.61-2.05Zm-.28-4v.11a9.65,9.65,0,0,1-.31,2.68,2.52,2.52,0,0,1-2.51,1.74,2,2,0,0,1-2.22-2.22c0-1.67,1-2.4,3.34-2.4a11.61,11.61,0,0,1,1.46.07l.24,0Z" transform="translate(-3.71 -41)"></path><path class="cls-4" d="M205.83,118.88h2.27l0-.22c0-.6,0-1.52,0-2.78s0-2,0-2.75c0-1.06,0-1.74,0-2.07v-1.91h.27l1.19,0c.81,0,1,0,1.49.07l.16-1.33h-.2c-.64,0-1.41.07-2.29.07H208v-.22l0-1.06c0-1.1.06-1.36.37-1.69a1.63,1.63,0,0,1,1.26-.42,6.55,6.55,0,0,1,1.73.26v-1.67a5.15,5.15,0,0,1-.57,0h-1.19a5,5,0,0,0-2.48.4c-.8.42-1.15,1.25-1.15,2.64V108l-.24,0a3.84,3.84,0,0,1-.42,0h-.4l-.19,0v1.27l.19,0,.42,0,.44,0h.2v.22l0,1.82,0,2,0,2.7,0,2.76v.22Z" transform="translate(-3.71 -41)"></path><path class="cls-4" d="M218.9,118.77v-1.39a5.41,5.41,0,0,1-1.52.22c-.88,0-1.34-.37-1.43-1.19,0-.4,0-.57-.07-1.87V113l0-1.6v-2.25h1.54c.75,0,1.21,0,1.41,0a.34.34,0,0,1,.16,0l.15-1.35a15.56,15.56,0,0,1-1.7.09l-1.34,0h-.22v-.35c0-.13,0-.48,0-1.06l.05-1.47,0-.27-2.2.62,0,.18,0,1.23V108h-.7a3.24,3.24,0,0,0-.46,0l-.16,0v1.27h.16l.57,0h.61v.27l0,1.6,0,1.74,0,1.61c0,1.14-.06,1.89-.06,2.22,0,1.67.92,2.49,2.77,2.49a8.15,8.15,0,0,0,2.4-.35Z" transform="translate(-3.71 -41)"></path><path class="cls-4" d="M220.85,118.55a15.83,15.83,0,0,0,4.09.57c2.75,0,4.49-1.34,4.49-3.46a2.81,2.81,0,0,0-1.12-2.35,7.18,7.18,0,0,0-2.56-1,8.49,8.49,0,0,1-1.91-.61,1.26,1.26,0,0,1-.73-1.13c0-.9.79-1.43,2.14-1.43a9.62,9.62,0,0,1,3.32.75v-1.94a7.14,7.14,0,0,1-.84,0,27.09,27.09,0,0,0-2.72-.18c-2.47,0-4,1.24-4,3.15a2.64,2.64,0,0,0,1,2.16,6,6,0,0,0,2.11.9c.69.2,1.15.33,1.35.4a3.85,3.85,0,0,1,.88.35,1.33,1.33,0,0,1,.48.35,1.49,1.49,0,0,1,.38,1c0,1-.93,1.68-2.45,1.68a9.31,9.31,0,0,1-3.91-1v1.87Z" transform="translate(-3.71 -41)"></path><path class="cls-4" d="M232.27,118.88h2.27l0-.22c0-.6-.05-1.52-.05-2.78s0-2,0-2.75c0-1.06,0-1.74,0-2.07v-1.91h.26l1.19,0c.81,0,1,0,1.5.07l.15-1.33h-.2c-.64,0-1.41.07-2.29.07h-.61v-.22l0-1.06c0-1.1.06-1.36.37-1.69a1.63,1.63,0,0,1,1.26-.42,6.68,6.68,0,0,1,1.74.26v-1.67a5.43,5.43,0,0,1-.58,0H236a5.07,5.07,0,0,0-2.48.4c-.8.42-1.15,1.25-1.15,2.64V108l-.24,0a3.84,3.84,0,0,1-.42,0h-.39l-.2,0v1.27l.2,0,.41,0,.44,0h.2v.22l0,1.82,0,2-.05,2.7,0,2.76v.22Z" transform="translate(-3.71 -41)"></path><path class="cls-3" d="M238.14,113.42c0,3.92,1.68,5.72,5.29,5.72s5.32-1.8,5.32-5.59c0-4-1.65-5.86-5.28-5.86s-5.33,1.81-5.33,5.73Zm2.27,0c0-3,.88-4.27,3-4.27s3.06,1.29,3.06,4.16c0,3.14-.89,4.42-3,4.42s-3.06-1.26-3.06-4.31Z" transform="translate(-3.71 -41)"></path><path class="cls-3" d="M251.52,118.88h2.27l0-.22,0-2,0-2.4,0-2.07c0-1.3.15-1.87.55-2.31a3.52,3.52,0,0,1,4-.22c.5.44.68,1,.68,2.35l0,2,0,3.22v.24a8.68,8.68,0,0,0,.07,1.41h2.33a5.75,5.75,0,0,1-.15-1.61c0-1,0-2.58,0-3.76V112.4c0-.22,0-.41,0-.63a4.83,4.83,0,0,0-.38-2.56,2.17,2.17,0,0,0-.85-.88,5,5,0,0,0-2.71-.64,4.47,4.47,0,0,0-3.61,1.35v-.25l0-.63,0-.22h-2.07a1.08,1.08,0,0,1,0,.22c0,.37.05,1.23.07,2.57l0,2.69,0,2.77c0,1.23-.05,2.07-.07,2.47a1,1,0,0,1,0,.22Z" transform="translate(-3.71 -41)"></path><path class="cls-3" d="M272.12,117.09a11.27,11.27,0,0,0,.09,1.79h2.05a20.14,20.14,0,0,1-.27-2.56c0-1-.08-3.14-.08-5.3,0-2.86.06-6.5.11-7.64v-.15h-2.25v.17c0,.53,0,1.3.07,2.31,0,.82,0,1.46,0,1.87v.25l0,.26-.66-.2a8.84,8.84,0,0,0-1.92-.2c-3.32,0-5.19,2.16-5.19,6,0,3.65,1.52,5.46,4.6,5.46,1.89,0,2.82-.55,3.43-2Zm-.26-7.55,0,.25v.94c0,1.15,0,2.38,0,3.48a6.71,6.71,0,0,1-.25,1.76,2.41,2.41,0,0,1-2.44,1.67c-1.87,0-2.77-1.34-2.77-4.13,0-3,1.05-4.38,3.23-4.38a6.85,6.85,0,0,1,2.25.41Z" transform="translate(-3.71 -41)"></path><path class="cls-4" d="M276.78,118.55a15.94,15.94,0,0,0,4.09.57c2.76,0,4.49-1.34,4.49-3.46a2.78,2.78,0,0,0-1.12-2.35,7,7,0,0,0-2.55-1,8.67,8.67,0,0,1-1.92-.61,1.25,1.25,0,0,1-.72-1.13c0-.9.79-1.43,2.13-1.43a9.62,9.62,0,0,1,3.33.75v-1.94a7.06,7.06,0,0,1-.84,0,27.07,27.07,0,0,0-2.73-.18c-2.46,0-4,1.24-4,3.15a2.65,2.65,0,0,0,1,2.16,5.91,5.91,0,0,0,2.11.9c.68.2,1.14.33,1.34.4a3.67,3.67,0,0,1,.88.35,1.37,1.37,0,0,1,.49.35,1.48,1.48,0,0,1,.37,1c0,1-.92,1.68-2.44,1.68a9.38,9.38,0,0,1-3.92-1v1.87Z" transform="translate(-3.71 -41)"></path><path class="cls-4" d="M287.85,117.75c0,.91.4,1.35,1.19,1.35s1.23-.44,1.23-1.32-.39-1.39-1.21-1.39-1.21.44-1.21,1.36Z" transform="translate(-3.71 -41)"></path></svg>