<?xml version="1.0" encoding="UTF-8" standalone="no"?>
<!DOCTYPE svg PUBLIC "-//W3C//DTD SVG 1.1//EN" "http://www.w3.org/Graphics/SVG/1.1/DTD/svg11.dtd">
<svg width="100%" height="100%" viewBox="0 0 1099 1099" version="1.1" xmlns="http://www.w3.org/2000/svg" xmlns:xlink="http://www.w3.org/1999/xlink" xml:space="preserve" xmlns:serif="http://www.serif.com/" style="fill-rule:evenodd;clip-rule:evenodd;stroke-linejoin:round;stroke-miterlimit:2;">
    <g transform="matrix(13.1186,0,0,13.1325,-8.30072,-8.09636)">
        <g>
            <g transform="matrix(0.141089,0,0,0.140939,0.833154,0.667694)">
                <path d="M295.309,0.913C458.374,0.913 590.762,133.301 590.762,296.366C590.762,459.431 458.374,591.819 295.309,591.819C132.244,591.819 -0.144,459.431 -0.144,296.366C-0.144,133.301 132.244,0.913 295.309,0.913ZM295.309,8.792C136.592,8.792 7.735,137.65 7.735,296.366C7.735,455.082 136.592,583.94 295.309,583.94C454.025,583.94 582.883,455.082 582.883,296.366C582.883,137.65 454.025,8.792 295.309,8.792Z" style="fill:rgb(191,228,241);"/>
            </g>
            <g transform="matrix(0.142623,0,0,0.143291,-0.32359,72.2126)">
                <path d="M280,64.7C250.5,62.6 217.2,54.4 191.5,42.9L185.5,40.2L195.1,40.6L204.8,41L208.5,34.5C212,28.1 212.2,27.9 215.3,28.5C217.1,28.8 218.7,29.2 218.9,29.4C219.1,29.6 219.7,32.1 220.1,34.9C221,40.9 221.5,41.3 228.8,42.9C233.8,44.1 234.2,44 236.8,41.6L239.5,39.1L255.8,40.8C264.7,41.8 272.2,42.7 272.4,42.9C272.6,43.1 273.3,44.3 273.9,45.6C275,47.6 275.7,47.8 284.6,47.8C293.7,47.8 294.4,47.6 300.1,44.3C305.1,41.4 307.1,40.8 312.1,40.8L318,40.8L318,44.2C318,47.4 318.2,47.6 322.6,48.2C330.5,49.2 332,49 332.9,46.4C333.8,44.2 334.1,44.1 339.7,45C343.6,45.7 346.4,46.9 348.2,48.5C350.7,50.9 352.1,51.2 365.2,52.2C373.1,52.8 379.1,53.6 378.5,54C376.7,55.1 356.6,59.8 345,61.7C333,63.8 306.9,65.9 297.2,65.7C294.1,65.6 286.3,65.1 280,64.7" style="fill:rgb(191,228,241);fill-opacity:0.18;fill-rule:nonzero;"/>
            </g>
            <g transform="matrix(0.142623,0,0,0.143291,-0.32359,-11.9564)">
                <path d="M91.8,556C68.6,529.1 49.1,493.6 38.5,458.7C30.3,431.5 26.7,405.2 27.2,375.4C27.5,353 26.7,355.7 38.6,338.8C41.9,334 44,330.1 43.8,328.8C43.6,327.7 41.4,325.1 38.8,323.2C35.7,321 34,318.9 34,317.6C34,314.2 40.6,292.6 45.5,280.2C61.6,239 90,199.4 124.5,170.5C136.5,160.4 158.9,145.3 172.1,138.3L181.7,133.2L191.9,133.2C197.5,133.2 203,132.7 204.1,132.1C205.2,131.5 206.6,131.3 207.3,131.5C208,131.8 207.2,132.5 205.5,133.1C202.4,134.3 194.3,141.7 191,146.2L189.2,148.7L200.1,148.6C207.8,148.6 211.4,148.1 212.6,147.1C213.5,146.4 218.5,140 223.7,133C229,125.9 233.8,120.2 234.5,120.2C236.2,120.2 243,127.8 243,129.8C243,130.6 239.6,134.5 235.4,138.5C227.9,145.5 225.5,148.9 223.9,154.4C223.3,156.8 223.4,157.2 225.1,157.2C226.5,157.2 227,157.9 227,159.7C227,161.1 227.3,162.2 227.8,162.2C230.1,162.2 278,167.3 280.3,167.8C282.2,168.2 283,168 283,167C283,166.3 293.5,160 306.3,153.1L329.5,140.4L339,139.8C347.4,139.2 354,137.7 354,136.5C354,136.3 352.4,134.8 350.5,133.1C347.6,130.5 347,129.3 347,126.1C347,121.7 347,121.7 353.2,123.7C356.1,124.8 358.1,126.2 358.8,127.7C359.5,129.1 360.3,130.2 360.8,130.2C361.3,130.2 366.5,127.7 372.4,124.6L383.2,119L393.3,122.7C412.8,129.9 434.4,141.3 456.5,156.2C503.3,187.6 540.8,237.6 559.4,293.3C568,319.1 571.8,341.4 572.7,369.7C573.2,385.6 573,389.3 571.7,392.5C568.8,399.2 567.8,397.4 566.5,383.7C566,377.3 561.2,360.2 560,360.2C559.6,360.2 558.1,361.9 556.7,364C554.4,367.3 554,369.1 553.2,381.6L552.2,395.4L544.9,402.3L537.5,409.2L530.5,408.6C518.1,407.6 517.4,407.3 513.1,400.8L509.2,395L511.8,387.7C514.6,379.8 515.5,379.2 523.5,379.2C526.5,379.2 526.8,379.5 527.4,383C527.7,385 528,388.6 528,390.9C528,394.4 528.4,395.3 531.3,397.1L534.5,399.1L534.8,396.9C534.9,395.7 535.8,390.9 536.8,386.3C538.3,378.9 538.9,377.6 542.3,374.5C547.2,370.1 549.3,364.3 548.5,357.8C547.9,352.9 545.3,347.2 543.8,347.2C539.2,347.2 523,359.8 518.6,366.7C517.5,368.3 516.5,369.9 516.3,370.1C516.1,370.4 514.2,368.9 512.2,366.8C508.5,363.2 508.4,363 508.8,357.4C509,354.3 509.9,350.2 510.6,348.3C511.4,346.5 512,342.3 512,339.1L512,333.2L504.8,333.2L505.5,337.1C506.1,341 506.1,341.1 502.3,342.1C499.1,343 498.3,342.9 497.2,341.5C496.6,340.6 496,339.2 496,338.5C496,336.5 495.3,336.8 489.6,341.5C486.8,343.8 483.3,346.5 482,347.4C479.6,349.1 479.6,349.1 486.3,348.5C492.5,348 493.3,348.1 495.5,350.2C496.9,351.5 498,353 498,353.5C498,354.1 498.8,355.4 499.7,356.4C501,357.9 501.5,360.8 501.8,370L502.2,381.7L496,384L489.8,386.2L490.1,373.7C490.4,364.7 490.2,361.6 489.4,362.5C488.8,363.2 480.4,372.1 470.7,382.4C451.6,402.6 447.7,407.8 445.4,416.2C442,428.6 441.6,428.9 426,437.2C418.7,441 413.1,444.8 410.7,447.4C407.3,451.1 391,482.2 391,485C391,485.6 388.9,488.2 386.3,490.7C379.3,497.3 373.2,499.3 359.1,499.5L347.7,499.7L346.5,492.6C345.1,484.9 340.4,473.9 330.9,457L325,446.4L325,437.5C325,423.9 323.2,406.4 321.4,403C320.5,401.3 319.6,397.4 319.3,394.3C318.9,391.2 318.1,387.8 317.4,386.7C316.7,385.6 315.6,381.6 314.9,377.7C314.3,373.9 313.1,369.2 312.4,367.3C311.6,365.5 311,362.4 311,360.5C311,357.3 310.8,357 308.8,357.7C300.1,360.4 293.2,361.2 275.5,361.1L256.5,361.1L237.5,341.3C227.1,330.4 218.3,320.3 217.9,318.9C217.5,317.5 217,311.6 216.9,305.8L216.5,295.3L246.5,274.4L276.5,253.6L276.2,247.5L275.8,241.5L283,240.1L283,224.4L287.6,223.7C294.3,222.7 295,222.3 295,219.1C295,217.1 292.5,212.4 287.1,204.4C279.5,193 279.3,192.5 280.6,189.9C281.4,188.4 282.6,187.2 283.3,187.2C286.9,187.1 287.2,185.7 285.4,177.3C284.4,172.9 283.4,169.5 283.1,169.8C282.8,170.1 281.3,173.6 279.9,177.5L277.3,184.7L252.5,185.2C231.3,185.6 227.9,185.9 229.3,187.1C231.6,189 231.5,193.9 229.1,195.2C226.1,196.7 222.8,196.4 216.3,194C209.9,191.6 208.8,190.6 209.4,187.9C210,185.4 209.1,183.2 207.4,183.2C205.5,183.2 203.3,187 202.6,191.7C200.9,202 198.1,204.2 186.7,204.2C178.3,204.2 178.7,204 155.7,217.6C146.4,223.1 134.4,229.1 123.8,233.5L106.7,240.6L97.2,255.1C92,263.2 87.2,270.2 86.5,270.7C85.9,271.3 85,272.7 84.6,273.8C84.2,275.2 81.9,276.9 78.3,278.4L72.7,280.8L78.9,284.8C82.2,286.9 85,289.1 85,289.5C85,290.9 78.4,297.2 77,297.2C75.7,297.2 62,283.7 62,282.5C62,282 64.3,280.4 67.1,278.8C71.3,276.5 72.6,275 74.6,270.6C77.6,263.7 77.8,259.2 75,259.2C71.5,259.2 66.1,265.2 62,273.6C56,286.1 54.6,292.1 55.4,301.8C56,309.5 55.9,310.2 53.5,313.8C51.6,316.6 51,318.6 51.2,321.6L51.5,325.5L69.5,331.7C90.4,338.8 109.1,346.4 127.6,355.1L140.7,361.3L140.2,366.6C140,369.5 140.3,372.8 140.9,374C141.5,375.1 146.6,378.8 152.2,382.2C171.8,394 177.8,400.1 176.5,406.2C175.5,410.9 172.3,414 164.9,417.8C160.4,420 157.3,422.4 156,424.4C155,426.1 152,433.8 149.5,441.5C143.7,458.9 141.8,462.7 137.8,464.8C134.9,466.3 134.3,466.3 128.9,464.7C121.8,462.5 119,463.2 114.1,468.1C106.8,475.4 93,498.3 88.5,510.4L86.8,515.1L92.1,524.9C95,530.3 100,539.3 103.2,545C106.4,550.7 109,555.7 109,556C109,556.8 99.4,562.2 98.1,562.2C97.6,562.2 94.7,559.4 91.8,556ZM469.4,351.3C471.1,350.6 471.2,350.5 469.7,349.9C468.8,349.6 466.4,346 464.4,342C462.4,338 458.7,331.6 456.2,327.7C451,319.6 432.3,294.2 431.5,294.2C430.8,294.2 435.7,301.9 439.8,306.9C441.6,309.3 445.7,317.2 448.9,324.5C452.1,331.8 456.4,341 458.4,345C461.6,351.4 462.3,352.2 464.8,352.1C466.3,352.1 468.4,351.7 469.4,351.3ZM373,267.3C373,265.4 376.4,264.2 382.3,264.2C385.1,264.2 385.2,264 384.7,261.2L384.1,258.2L404.9,258.2L405.2,254.5C405.5,251.2 405.9,250.6 408.5,250.2C410.6,249.8 407.9,249 399,247.4L386.5,245.2L382.8,249.2C379.1,253.1 379,253.2 372,253.2C365.5,253.2 364.9,253 363.8,250.7C363.2,249.3 362.4,248.2 362,248.2C360.8,248.2 353.3,256.7 351.2,260.5C348.7,264.8 348,264.3 360.5,267.1C372.1,269.6 373,269.6 373,267.3ZM346,254.3C346,251.7 344.9,250.5 337.3,245.3C329.6,239.8 328.1,239.2 323.7,239.2C319,239.2 318.3,239.6 309.2,247C301,253.6 300,254.7 302.1,255C303.4,255.1 313.5,255.6 324.5,256.1C335.5,256.5 344.8,257 345.3,257C345.7,257.1 346,255.9 346,254.3ZM409.9,238.5C411.9,237.6 414.6,236.5 415.9,236L418.3,235.1L414.5,231.2C410.5,227.2 409,226.9 409,230.3C409,232.5 405.5,234.2 400.7,234.2C396.2,234.2 395.1,235.2 395.7,238.5C396.3,241.3 396.4,241.3 401.3,240.7C404,240.3 407.9,239.3 409.9,238.5" style="fill:rgb(191,228,241);fill-opacity:0.18;fill-rule:nonzero;"/>
            </g>
            <g transform="matrix(0.142623,0,0,0.143291,-0.32359,33.825)">
                <path d="M452.4,195.1C451.7,188.4 451.7,188.4 455.2,185.2C458.2,182.3 458.9,180.7 461,171.3C462.3,165.4 463.6,160.4 464,160.2C464.4,160 465.6,160.1 466.8,160.4C468.9,160.9 469,161.5 469,170.9C469,180.8 468.9,181 465.5,185.7C462.5,189.8 462,191.2 462,196.1L462,201.7L453.2,201.7L452.4,195.1" style="fill:rgb(191,228,241);fill-opacity:0.18;fill-rule:nonzero;"/>
            </g>
            <g transform="matrix(0.142623,0,0,0.143291,-0.32359,24.5541)">
                <path d="M521.5,254.4C518.3,253.2 516.7,250.7 517.4,248.1C517.9,245.8 517.6,245.6 505.5,242.8L493,240L492.8,212.5L492.5,185L489.3,184.2C485.7,183.3 485.5,182.8 487,179C487.8,176.8 488.3,176.5 491.1,177.1C494,177.6 494.7,177.3 497.6,173.9L500.8,170.1L503.8,172.3C506.2,173.9 507.2,175.7 508.1,179.9C509,184 509.8,185.4 511,185.4C512,185.4 514.1,185.7 515.8,186C518.9,186.6 518.9,186.6 519.6,181.5L520.3,176.4L532.8,176.4L534.2,190.2L538.9,190.9C542.6,191.4 545.1,190.9 551.8,188.5C556.4,186.8 560.7,185.4 561.4,185.4C562,185.4 563.1,186.9 563.8,188.8C564.9,191.8 564.7,193.4 561.5,203.7C554.1,228.3 545.8,246.2 540.2,249.9C533.2,254.5 526,256.3 521.5,254.4" style="fill:rgb(191,228,241);fill-opacity:0.18;fill-rule:nonzero;"/>
            </g>
            <g transform="matrix(0.142623,0,0,0.143291,-0.32359,22.6627)">
                <path d="M397.5,239.2C395.6,237.8 395.6,237.8 397.5,235.6C398.5,234.5 402,229 405.1,223.4L410.8,213.3L422.6,206C429.1,201.9 434.8,198.6 435.3,198.6C436.5,198.6 434.8,201.4 425.4,214.2C414.3,229.4 408.6,236.1 404.5,238.6C400.7,241 400,241 397.5,239.2" style="fill:rgb(191,228,241);fill-opacity:0.18;fill-rule:nonzero;"/>
            </g>
            <g transform="matrix(0.142623,0,0,0.143291,-0.32359,8.64883)">
                <path d="M493.3,277.2C492,276.6 491,275.7 491,275.2C491,274.1 493.3,270.7 498.8,263.2C502.1,258.8 502.4,258.6 505.4,259.6C507.1,260.2 508.9,261 509.4,261.5C510.3,262.3 506.1,268.3 500.1,274.7C496.2,278.8 496.4,278.7 493.3,277.2" style="fill:rgb(191,228,241);fill-opacity:0.18;fill-rule:nonzero;"/>
            </g>
            <g transform="matrix(0.142623,0,0,0.143291,-0.32359,-72.0095)">
                <path d="M244.2,567.8C242,562.9 242.7,557.7 246.2,553.6C252.3,546.3 260.5,538.1 264.5,535.3C271.2,530.7 275,530 288.8,531.1C295.6,531.7 301.4,532.4 301.8,532.8C304.1,535.1 253.6,570.1 247.9,570.3C246.1,570.3 245,569.6 244.2,567.8" style="fill:rgb(191,228,241);fill-opacity:0.18;fill-rule:nonzero;"/>
            </g>
            <g transform="matrix(0.142623,0,0,0.143291,-0.32359,-68.5276)">
                <path d="M285.7,544.3C285.4,543.8 284.9,540.7 284.5,537.3L283.8,531L298.5,531L298.2,538L297.8,545L292,545C288.8,545 285.9,544.7 285.7,544.3" style="fill:rgb(191,228,241);fill-opacity:0.18;fill-rule:nonzero;"/>
            </g>
            <g transform="matrix(0.142623,0,0,0.143291,-0.32359,-75.993)">
                <path d="M318.2,564.3C317,560.5 316,557.2 316,556.8C316,556.2 338.2,563.5 341,565.1C342,565.7 341.1,566.2 338,567.1C335.5,567.7 331.3,568.9 328.6,569.7C320.8,571.9 320.6,571.8 318.2,564.3" style="fill:rgb(191,228,241);fill-opacity:0.18;fill-rule:nonzero;"/>
            </g>
        </g>
    </g>
    <g transform="matrix(1.85185,0,0,1.85185,-41.3386,-41.3386)">
        <g>
            <clipPath id="_clip1">
                <rect x="23.632" y="131.212" width="590.777" height="375.308" clip-rule="nonzero"/>
            </clipPath>
            <g clip-path="url(#_clip1)">
                <path d="M51.828,444.916L174.76,444.916C211.611,477.444 262.629,497.588 319.007,497.588L553.918,497.588C550.502,502.072 546.961,506.456 543.299,510.734L94.496,510.734C77.516,490.895 63.119,468.781 51.828,444.916ZM597.64,416.483C594.495,425.455 590.93,434.229 586.967,442.783L465.649,442.783C474.503,434.705 482.49,425.906 489.49,416.483L597.64,416.483ZM26.71,361.711L121.406,361.711C126.694,380.609 135.415,398.314 146.935,414.31L39.403,414.31C33.629,397.413 29.345,379.827 26.71,361.711ZM433.774,268.666C437.831,268.666 441.807,269.09 445.725,269.932C449.642,270.773 453.129,271.747 456.206,272.867C459.839,274.126 463.201,275.458 466.278,276.863L459.138,293.236C456.352,291.97 453.546,290.857 450.767,289.877C448.385,289.035 445.751,288.227 442.893,287.458C440.027,286.689 437.195,286.305 434.403,286.305C431.2,286.305 428.434,287.08 426.118,288.611C423.822,290.155 422.671,292.461 422.671,295.542C422.671,303.52 428.461,309.749 440.067,314.228C444.395,315.911 448.312,317.68 451.813,319.582C455.3,321.464 458.277,323.664 460.719,326.188C463.161,328.706 465.02,331.608 466.278,334.895C467.528,338.182 468.163,342.078 468.163,346.557C468.163,350.466 467.35,354.323 465.755,358.1C464.14,361.87 461.765,365.243 458.622,368.172C455.472,371.12 451.621,373.466 447.095,375.195C442.549,376.958 437.4,377.839 431.677,377.839C427.065,377.839 422.525,377.309 418.059,376.249C413.585,375.195 409.562,374.049 405.996,372.79C402.429,371.525 399.597,370.358 397.506,369.232L394.363,367.754L402.131,350.115L404.844,351.593C406.657,352.719 408.967,353.892 411.759,355.151C414.565,356.417 417.562,357.57 420.772,358.617C423.988,359.67 426.919,360.2 429.586,360.2C434.469,360.2 438.102,359.226 440.477,357.258C442.86,355.29 444.044,352.719 444.044,349.492C444.044,345.861 442.754,342.522 440.166,339.533C437.573,336.498 433.708,334.04 428.534,332.066C417.774,328.017 410.045,323.392 405.367,318.217C400.689,313.028 398.346,306.323 398.346,298.06C398.346,294.144 399.253,290.4 401.072,286.829C402.892,283.257 405.367,280.11 408.517,277.38C411.66,274.656 415.392,272.523 419.733,270.979C424.067,269.441 428.745,268.666 433.774,268.666ZM187.875,370.332C183.965,365.932 181.999,360.227 181.999,353.21L181.999,271.562L205.907,271.562L205.907,351.116C205.907,354.336 206.397,356.51 207.37,357.636C208.349,358.762 209.811,359.306 211.777,359.306L213.557,359.306C214.179,359.306 214.787,359.24 215.343,359.1C215.899,359.1 216.528,359.021 217.229,358.888L219.737,374.009C218.751,374.566 217.5,375.056 215.972,375.467C214.708,375.885 213.133,376.249 211.26,376.534C209.368,376.806 207.224,376.931 204.862,376.931C197.444,376.931 191.793,374.732 187.875,370.332ZM260.637,375.726L236.743,375.726L236.743,322.829C236.743,314.427 236.174,307.403 235.062,301.737C233.937,296.065 232.753,291.487 231.496,287.981C229.96,283.926 228.28,280.64 226.467,278.115L245.339,270.555C246.735,272.098 248.131,273.987 249.527,276.227C250.652,278.188 251.764,280.607 252.889,283.476C254,286.345 254.914,289.592 255.615,293.236C259.102,284.834 264.025,278.784 270.384,275.074C276.743,271.37 283.493,269.508 290.626,269.508C297.746,269.508 303.305,271.336 307.281,274.968C311.265,278.605 314.249,283.297 316.201,289.035C319.973,282.038 324.837,277.028 330.766,274.02C336.714,271.018 342.968,269.508 349.532,269.508C354.984,269.508 359.577,270.382 363.269,272.132C366.981,273.881 369.912,276.333 372.07,279.48C374.227,282.634 375.822,286.411 376.788,290.817C377.774,295.224 378.263,300.16 378.263,305.614L378.263,375.726L354.574,375.726L354.574,307.297C354.574,301.419 353.654,296.774 351.848,293.342C350.021,289.91 346.872,288.187 342.398,288.187C339.752,288.187 337.058,288.929 334.332,290.4C331.606,291.871 329.125,293.998 326.901,296.801C324.651,299.604 322.845,302.963 321.449,306.873C320.039,310.795 319.344,315.129 319.344,319.9L319.344,375.726L295.649,375.726L295.649,307.297C295.649,301.419 294.749,296.774 292.922,293.342C291.103,289.91 287.959,288.187 283.493,288.187C280.7,288.187 277.934,289.002 275.208,290.612C272.489,292.222 270.034,294.568 267.863,297.642C265.706,300.724 263.959,304.467 262.629,308.88C261.299,313.28 260.637,318.217 260.637,323.664L260.637,375.726ZM614.171,319.979C614.123,333.353 613.184,346.518 611.41,359.418L517.216,359.418C520.571,346.736 522.417,333.543 522.51,319.979L614.171,319.979ZM26.387,278.36L120.804,278.36C117.45,291.049 115.603,304.235 115.517,317.806L23.624,317.806C23.673,304.43 24.612,291.263 26.387,278.36ZM598.391,223.482C604.164,240.375 608.447,257.956 611.083,276.068L516.621,276.068C511.334,257.176 502.619,239.478 491.105,223.482L598.391,223.482ZM208.607,241.476C208.607,233.377 202.042,226.802 193.957,226.802C185.871,226.802 179.306,233.377 179.306,241.476C179.306,249.574 185.871,256.149 193.957,256.149C202.042,256.149 208.607,249.574 208.607,241.476ZM50.833,195.003L172.352,195.003C163.511,203.08 155.525,211.873 148.517,221.295L40.161,221.295C43.305,212.326 46.871,203.554 50.833,195.003ZM543.166,126.905C560.135,146.704 574.53,168.773 585.831,192.591L463.101,192.591C426.257,160.142 375.305,140.058 319.007,140.058L83.991,140.058C87.413,135.571 90.961,131.185 94.629,126.905L543.166,126.905Z" style="fill:rgb(191,228,241);"/>
            </g>
        </g>
    </g>
</svg>
