<svg xmlns="http://www.w3.org/2000/svg" id="Ebene_1" data-name="Ebene 1" viewBox="0 0 581.71 91.71"><defs><style>.cls-1,.cls-3{fill:#0061af;}.cls-2,.cls-5{fill:#fff;stroke:#fff;}.cls-2{stroke-width:2.18px;}.cls-3,.cls-4{fill-rule:evenodd;}.cls-4{fill:#a7a9ac;}.cls-5{stroke-width:0.3px;}</style></defs><path class="cls-1" d="M121.86,475.88A13,13,0,0,1,115,474l1.17-2.28a10.54,10.54,0,0,0,5.76,1.76c2.78,0,4.6-1.42,4.6-3.71,0-1.73-1.14-2.94-3.52-3.62l-2.23-.65c-3.21-.93-5-2.47-5-5.5,0-3.69,2.85-6.19,7.05-6.19a11.33,11.33,0,0,1,6.53,2l-1.33,2.1a9,9,0,0,0-5.07-1.67c-2.39,0-3.87,1.24-3.87,3.22,0,1.51.87,2.38,3.16,3.06l2.5.74c2.85.84,5.2,2.69,5.2,6C129.91,472.23,127.46,475.88,121.86,475.88Z" transform="translate(-10.04 -384.17)"></path><path class="cls-1" d="M149,475.57h-3.4l-1.83-7.11a43.74,43.74,0,0,1-1-5.23c-.09.65-.49,2.94-1,5.11L140,475.57h-3.47l-4.36-16.36h3.1l1.88,7.18A44.14,44.14,0,0,1,138.2,472a46.1,46.1,0,0,1,1.11-5.42l1.88-7.33h3.22l2,7.83c.5,1.95.87,4,1,4.79.09-.74.53-3.12,1.08-5.35l1.86-7.27h3Z" transform="translate(-10.04 -384.17)"></path><path class="cls-1" d="M156.78,475.48V459.21h2.94v16.27Z" transform="translate(-10.04 -384.17)"></path><path class="cls-1" d="M173.67,474.86a8.84,8.84,0,0,1-4.3,1,13,13,0,0,1-6-1.45l1.11-2.26a10.3,10.3,0,0,0,5,1.33,4.64,4.64,0,0,0,2.45-.53,2.07,2.07,0,0,0,1.2-1.85c0-1.18-.83-1.92-2.87-2.44L168,468a5.53,5.53,0,0,1-3.28-2.11,3.93,3.93,0,0,1-.71-2.26c0-2.87,2.56-4.88,6.18-4.88a11.05,11.05,0,0,1,5.85,1.61l-1.33,2.07a8.52,8.52,0,0,0-4.39-1.3c-1.89,0-3.16.8-3.16,2.1,0,1,.72,1.58,2.57,2.11l2.23.55a7.39,7.39,0,0,1,3.28,1.67,4.22,4.22,0,0,1,1.17,2.94A4.9,4.9,0,0,1,173.67,474.86Z" transform="translate(-10.04 -384.17)"></path><path class="cls-1" d="M189.26,474.86a8.84,8.84,0,0,1-4.3,1,13,13,0,0,1-6-1.45l1.11-2.26a10.3,10.3,0,0,0,5,1.33,4.67,4.67,0,0,0,2.45-.53,2.07,2.07,0,0,0,1.2-1.85c0-1.18-.83-1.92-2.87-2.44l-2.32-.59a5.53,5.53,0,0,1-3.28-2.11,3.86,3.86,0,0,1-.71-2.26c0-2.87,2.56-4.88,6.18-4.88a11.11,11.11,0,0,1,5.85,1.61l-1.33,2.07a8.55,8.55,0,0,0-4.39-1.3c-1.89,0-3.16.8-3.16,2.1,0,1,.71,1.58,2.57,2.11l2.23.55a7.35,7.35,0,0,1,3.27,1.67,4.18,4.18,0,0,1,1.18,2.94A4.9,4.9,0,0,1,189.26,474.86Z" transform="translate(-10.04 -384.17)"></path><path class="cls-1" d="M213.81,475.48l-5.6-11.32a58.51,58.51,0,0,1-2.59-5.84l-.19,0c.16,1.82.22,4,.25,5.93l.12,11.2h-3V454.17h3.47l5.93,11.75a42.14,42.14,0,0,1,2.11,5.11l.18-.07c-.06-.61-.31-4-.31-6.33l-.06-10.46H217v21.31Z" transform="translate(-10.04 -384.17)"></path><path class="cls-1" d="M232,475.48l-1.55-4.24h-6.09l-1.55,4.24h-3l6.07-16.3h3.37l5.94,16.3Zm-4.55-13.67c-.09.43-2.22,6.68-2.35,7.11h4.67C229.62,468.37,227.58,462.24,227.48,461.81Z" transform="translate(-10.04 -384.17)"></path><path class="cls-1" d="M247.87,461.59h-4.71v13.89h-2.87V461.59h-4.64v-2.38h12.62Z" transform="translate(-10.04 -384.17)"></path><path class="cls-1" d="M251.33,475.48V459.21h2.94v16.27Z" transform="translate(-10.04 -384.17)"></path><path class="cls-1" d="M260.76,473.66a8.69,8.69,0,0,1-2.26-6.34c0-5.2,2.85-8.35,7.52-8.35a7.08,7.08,0,0,1,5.88,2.53,8.7,8.7,0,0,1,1.76,5.88c0,2.63-.53,4.48-1.67,5.87a6.7,6.7,0,0,1-5.78,2.51A6.82,6.82,0,0,1,260.76,473.66Zm9.09-2.42a9,9,0,0,0,.53-3.65,9.72,9.72,0,0,0-.71-4.33,3.74,3.74,0,0,0-3.71-2,3.9,3.9,0,0,0-3.4,1.7,8,8,0,0,0-.84,4.21,9.79,9.79,0,0,0,1,4.89,3.77,3.77,0,0,0,3.47,1.57A3.47,3.47,0,0,0,269.85,471.24Z" transform="translate(-10.04 -384.17)"></path><path class="cls-1" d="M290.64,475.48V459.21h-2.78l.09,7.61c0,1.92.24,4,.28,4.36-.22-.43-1-2.1-2-3.77l-4.73-8.2h-3.28v16.27h2.87l-.12-7.79c0-2-.12-3.71-.19-4.55.13.31,1.21,2.6,2.17,4.21l4.64,8.13Z" transform="translate(-10.04 -384.17)"></path><path class="cls-1" d="M305.82,475.48l-1.54-4.24h-6.09l-1.55,4.24h-3l6.06-16.3h3.37l5.94,16.3Zm-4.54-13.67c-.1.43-2.23,6.68-2.35,7.11h4.67C303.41,468.37,301.37,462.24,301.28,461.81Z" transform="translate(-10.04 -384.17)"></path><path class="cls-1" d="M321.1,475.48h-9.34V459.21h2.94V473.1h6.87Z" transform="translate(-10.04 -384.17)"></path><path class="cls-1" d="M336.16,475.88A13,13,0,0,1,329.3,474l1.17-2.28a10.54,10.54,0,0,0,5.76,1.76c2.78,0,4.6-1.42,4.6-3.71,0-1.73-1.14-2.94-3.52-3.62l-2.23-.65c-3.21-.93-5-2.47-5-5.5,0-3.69,2.85-6.19,7-6.19a11.33,11.33,0,0,1,6.53,2l-1.33,2.1a9,9,0,0,0-5.08-1.67c-2.38,0-3.86,1.24-3.86,3.22,0,1.51.87,2.38,3.16,3.06l2.5.74c2.84.84,5.2,2.69,5.2,6C344.21,472.23,341.76,475.88,336.16,475.88Z" transform="translate(-10.04 -384.17)"></path><path class="cls-1" d="M354.84,475.73a7.65,7.65,0,0,1-5.47-2,8.33,8.33,0,0,1-2.38-6.16,9.17,9.17,0,0,1,1.39-5.07A7.63,7.63,0,0,1,355,458.9a8.22,8.22,0,0,1,4.58,1.3l-1.43,1.95a5.67,5.67,0,0,0-3.12-.93,4.42,4.42,0,0,0-4,2.29,7.35,7.35,0,0,0-.8,3.87c0,2.29.34,3.46,1.29,4.54a4.59,4.59,0,0,0,3.62,1.58,6.15,6.15,0,0,0,3.37-1l1.4,1.8A8.33,8.33,0,0,1,354.84,475.73Z" transform="translate(-10.04 -384.17)"></path><path class="cls-1" d="M362.92,475.48V459.21h2.94v16.27Z" transform="translate(-10.04 -384.17)"></path><path class="cls-1" d="M371.05,475.48V459.21h10.21l-.4,2.38H374v4.21h5.75v2.38H374V473h7.52v2.47Z" transform="translate(-10.04 -384.17)"></path><path class="cls-1" d="M398.24,475.48V459.21h-2.79l.1,7.61c0,1.92.24,4,.28,4.36-.22-.43-1-2.1-1.95-3.77l-4.74-8.2h-3.27v16.27h2.87l-.12-7.79c0-2-.13-3.71-.19-4.55.13.31,1.21,2.6,2.17,4.21l4.64,8.13Z" transform="translate(-10.04 -384.17)"></path><path class="cls-1" d="M410.08,475.73a7.65,7.65,0,0,1-5.47-2,8.29,8.29,0,0,1-2.38-6.16,9.17,9.17,0,0,1,1.39-5.07,7.63,7.63,0,0,1,6.59-3.59,8.16,8.16,0,0,1,4.57,1.3l-1.42,1.95a5.67,5.67,0,0,0-3.12-.93,4.41,4.41,0,0,0-4,2.29,7.34,7.34,0,0,0-.81,3.87c0,2.29.34,3.46,1.3,4.54a4.59,4.59,0,0,0,3.62,1.58,6.15,6.15,0,0,0,3.37-1l1.4,1.8A8.35,8.35,0,0,1,410.08,475.73Z" transform="translate(-10.04 -384.17)"></path><path class="cls-1" d="M418.09,475.48V459.21H428.3l-.4,2.38H421v4.21h5.75v2.38H421V473h7.52v2.47Z" transform="translate(-10.04 -384.17)"></path><path class="cls-1" d="M449.64,456.62h-7.7v6.46h6.31v2.41h-6.31v10h-3V454.17H450Z" transform="translate(-10.04 -384.17)"></path><path class="cls-1" d="M453.51,473.66a8.65,8.65,0,0,1-2.26-6.34c0-5.2,2.84-8.35,7.51-8.35a7.07,7.07,0,0,1,5.88,2.53,8.64,8.64,0,0,1,1.76,5.88c0,2.63-.52,4.48-1.67,5.87a6.7,6.7,0,0,1-5.78,2.51A6.8,6.8,0,0,1,453.51,473.66Zm9.09-2.42a9.14,9.14,0,0,0,.53-3.65,9.7,9.7,0,0,0-.72-4.33,3.74,3.74,0,0,0-3.71-2,3.91,3.91,0,0,0-3.4,1.7,8,8,0,0,0-.83,4.21,9.79,9.79,0,0,0,1,4.89,3.74,3.74,0,0,0,3.46,1.57A3.48,3.48,0,0,0,462.6,471.24Z" transform="translate(-10.04 -384.17)"></path><path class="cls-1" d="M481.71,474.21a6.67,6.67,0,0,1-4.85,1.55c-3.13,0-4.86-1.15-5.66-2.57a6.14,6.14,0,0,1-.65-3.43V459.21h2.9v10a7.73,7.73,0,0,0,.25,2.47,3.19,3.19,0,0,0,3.19,1.68,3.33,3.33,0,0,0,2.72-1c.46-.62.62-1.18.62-2.76V459.21h2.94V469.7C483.17,472.29,482.83,473.19,481.71,474.21Z" transform="translate(-10.04 -384.17)"></path><path class="cls-1" d="M497.64,475.48,493,467.35a45.63,45.63,0,0,1-2.16-4.21c.06.84.15,2.51.18,4.55l.12,7.79h-2.87V459.21h3.28l4.73,8.2c1,1.67,1.73,3.34,2,3.77,0-.37-.25-2.44-.28-4.36l-.09-7.61h2.78v16.27Z" transform="translate(-10.04 -384.17)"></path><path class="cls-1" d="M514.06,459.77c2.41.74,4.67,2.75,4.67,7.58,0,5.25-3.27,7.48-5.29,7.91a12.3,12.3,0,0,1-2.9.22h-4.73V459.21h3.64A12,12,0,0,1,514.06,459.77Zm.28,3.25a4.24,4.24,0,0,0-3.71-1.49h-1.92v11.6H511a5.83,5.83,0,0,0,1.55-.19c1.73-.43,3-1.94,3-5.38C515.55,465.43,515.21,464,514.34,463Z" transform="translate(-10.04 -384.17)"></path><path class="cls-1" d="M532.84,475.48l-1.55-4.24H525.2l-1.55,4.24h-3l6.06-16.3h3.37l5.94,16.3Zm-4.55-13.67c-.09.43-2.23,6.68-2.35,7.11h4.67C530.42,468.37,528.38,462.24,528.29,461.81Z" transform="translate(-10.04 -384.17)"></path><path class="cls-1" d="M548.67,461.59H544v13.89h-2.88V461.59h-4.64v-2.38h12.62Z" transform="translate(-10.04 -384.17)"></path><path class="cls-1" d="M552.14,475.48V459.21h2.93v16.27Z" transform="translate(-10.04 -384.17)"></path><path class="cls-1" d="M562.19,473.66a8.65,8.65,0,0,1-2.26-6.34c0-5.2,2.84-8.35,7.52-8.35a7.06,7.06,0,0,1,5.87,2.53,8.64,8.64,0,0,1,1.76,5.88c0,2.63-.52,4.48-1.67,5.87a6.7,6.7,0,0,1-5.78,2.51A6.81,6.81,0,0,1,562.19,473.66Zm9.09-2.42a9.16,9.16,0,0,0,.52-3.65,9.72,9.72,0,0,0-.71-4.33,3.74,3.74,0,0,0-3.71-2,3.91,3.91,0,0,0-3.4,1.7,8,8,0,0,0-.84,4.21,9.78,9.78,0,0,0,1,4.89,3.74,3.74,0,0,0,3.46,1.57A3.49,3.49,0,0,0,571.28,471.24Z" transform="translate(-10.04 -384.17)"></path><path class="cls-1" d="M588.75,475.48l-4.63-8.13a44,44,0,0,1-2.17-4.21c.06.84.15,2.51.18,4.55l.13,7.79h-2.88V459.21h3.28l4.73,8.2c1,1.67,1.74,3.34,2,3.77,0-.37-.25-2.44-.28-4.36l-.09-7.61h2.78v16.27Z" transform="translate(-10.04 -384.17)"></path><rect class="cls-2" x="1.09" y="1.09" width="210.42" height="52.6"></rect><path class="cls-3" d="M134.53,385.26l.3.15-6.22,12.16a16.48,16.48,0,0,0-10.41-4c-2.91,0-6.8,1.67-6.8,5s4.29,4.88,7,5.76l4,1.2c8.37,2.48,14.94,6.82,14.94,16.58,0,5.49-1.42,11.66-5.28,15.69h89.42V385.26Z" transform="translate(-10.04 -384.17)"></path><path class="cls-4" d="M92.73,437.76l6.7-13.3c3.91,3.44,8.53,6.23,13.91,6.23,3.73,0,7.7-1.83,7.7-6.07,0-4.41-6.24-5.92-9.64-6.88-9.81-2.8-16.27-5.36-16.27-17,0-6.57,2.52-11.89,6.7-15.44H11.13v52.59H92.87Z" transform="translate(-10.04 -384.17)"></path><path class="cls-5" d="M30.85,396.37v11H44.43v4.46H30.85V431H26V391.92H44.9v4.45Z" transform="translate(-10.04 -384.17)"></path><path class="cls-5" d="M53.14,390.05,82.47,420.8V391.92h4.85v40.7L58,401.88V431H53.14Z" transform="translate(-10.04 -384.17)"></path><path class="cls-5" d="M145.52,390.05l29.32,30.75V391.92h4.85v40.7l-29.32-30.74V431h-4.85Z" transform="translate(-10.04 -384.17)"></path><path class="cls-5" d="M194.45,396.37v11H208v4.46H194.45V431h-4.86V391.92h18.9v4.45Z" transform="translate(-10.04 -384.17)"></path></svg>